<?xml version="1.0" standalone="no"?>
<!DOCTYPE svg PUBLIC "-//W3C//DTD SVG 20010904//EN"
 "http://www.w3.org/TR/2001/REC-SVG-20010904/DTD/svg10.dtd">
<svg version="1.0" xmlns="http://www.w3.org/2000/svg"
 width="720.000000pt" height="720.000000pt" viewBox="0 0 720.000000 720.000000"
 preserveAspectRatio="xMidYMid meet">
<metadata>
Created by potrace 1.11, written by Peter Selinger 2001-2013
</metadata>
<g transform="translate(0.000000,720.000000) scale(0.100000,-0.100000)"
fill="#000000" stroke="none">
<path d="M4268 7026 c-1 -2 -34 -6 -73 -10 -90 -8 -226 -34 -276 -51 -21 -8
-39 -12 -39 -10 0 5 -178 -56 -243 -84 -26 -11 -49 -21 -52 -21 -8 -1 -130
-63 -135 -69 -3 -3 -25 -17 -50 -30 -44 -24 -150 -90 -160 -101 -3 -3 -34 -27
-70 -55 -100 -76 -248 -219 -311 -299 -13 -16 -34 -41 -46 -55 -28 -30 -168
-238 -183 -272 -6 -13 -21 -43 -35 -67 -13 -23 -24 -45 -25 -47 0 -3 -11 -26
-22 -52 -12 -27 -23 -52 -25 -58 -1 -5 -20 -60 -40 -122 -45 -132 -41 -116
-63 -228 -26 -126 -36 -208 -45 -346 l-3 -57 -94 -93 c-52 -52 -114 -119 -138
-149 -25 -30 -51 -61 -57 -68 -24 -25 -163 -239 -163 -250 0 -7 -3 -12 -7 -12
-5 0 -30 -46 -58 -103 -27 -56 -52 -104 -55 -107 -3 -3 -18 -39 -34 -80 -16
-41 -34 -88 -42 -105 -19 -45 -69 -210 -89 -295 -10 -41 -19 -76 -20 -78 -3
-4 -32 -8 -133 -22 -68 -9 -269 -48 -335 -65 -9 -3 -25 -7 -36 -9 -10 -2 -40
-11 -65 -20 -26 -9 -53 -16 -61 -16 -8 0 -29 -6 -47 -14 -18 -8 -78 -32 -133
-53 -108 -40 -264 -117 -333 -164 -24 -16 -47 -29 -53 -29 -5 0 -9 -4 -9 -8 0
-4 -13 -15 -28 -24 -104 -61 -259 -237 -312 -353 -46 -101 -52 -125 -56 -241
-4 -97 19 -207 55 -269 16 -29 16 -32 -10 -105 -46 -131 -48 -141 -45 -239 8
-238 136 -430 418 -627 35 -24 68 -44 75 -44 6 0 13 -4 15 -8 9 -24 383 -184
481 -207 12 -3 72 -18 132 -35 61 -17 124 -32 140 -35 70 -13 142 -25 165 -30
110 -21 388 -45 553 -48 76 -1 107 -5 107 -13 0 -7 6 -25 14 -41 8 -15 22 -45
30 -65 36 -87 49 -114 62 -140 9 -16 13 -28 10 -28 -3 0 9 -30 25 -67 17 -38
34 -77 38 -88 5 -11 21 -46 35 -78 14 -32 26 -62 26 -67 0 -6 4 -10 9 -10 5 0
13 -9 16 -20 11 -35 108 -119 173 -151 79 -38 88 -40 185 -44 258 -12 471 202
463 465 -1 45 2 70 9 70 6 0 36 -4 66 -10 137 -24 346 -31 464 -17 33 5 74 9
90 11 17 2 46 7 65 12 19 5 40 9 45 9 23 2 121 28 138 37 10 5 26 11 36 13 25
5 157 58 203 81 20 11 53 28 75 38 21 11 40 22 43 25 3 4 21 15 40 25 42 23
197 134 248 179 50 43 232 227 260 263 61 77 162 218 162 225 0 4 6 14 13 21
32 31 155 269 201 389 21 52 41 101 45 109 5 9 12 31 16 50 4 19 11 41 16 50
10 18 54 182 69 255 5 28 11 59 14 71 2 12 7 45 11 74 4 29 8 60 10 69 27 140
26 630 -1 763 -9 46 -14 75 -19 112 -2 21 -7 46 -9 55 -3 9 -7 27 -10 41 -34
187 -112 412 -217 626 l-69 141 17 34 c58 118 188 275 275 335 24 16 52 37 62
47 11 9 25 17 32 17 7 0 14 3 16 8 2 4 26 18 53 31 28 12 57 27 66 31 26 13
166 51 217 58 26 4 101 7 167 6 122 -1 248 -24 333 -62 20 -9 39 -16 42 -17
200 -49 331 -33 474 59 98 63 205 208 233 317 14 55 12 218 -3 271 -48 165
-157 292 -304 352 -25 10 -54 22 -65 27 -60 25 -247 81 -270 80 -2 0 -19 5
-37 10 -18 5 -49 12 -68 15 -19 3 -41 7 -48 9 -29 10 -177 19 -312 19 -158 0
-257 -8 -365 -29 -38 -8 -81 -16 -95 -19 -44 -8 -262 -76 -291 -92 -16 -8 -32
-14 -36 -15 -5 0 -62 -26 -128 -59 -258 -126 -506 -324 -681 -542 -32 -40 -63
-79 -70 -86 -9 -11 -18 -10 -50 10 -73 46 -294 134 -382 153 -12 3 -32 8 -44
11 -13 3 -32 7 -43 9 -11 2 -42 8 -70 13 -27 6 -53 8 -57 6 -5 -3 -8 -2 -8 3
0 4 -37 9 -81 10 -45 1 -84 4 -86 7 -7 7 70 117 119 171 50 55 170 155 187
155 6 0 11 4 11 8 0 22 245 123 335 137 47 8 135 16 200 19 147 6 281 67 378
171 32 34 97 129 97 142 0 4 6 20 14 34 41 80 45 279 6 374 -49 122 -98 187
-190 257 -103 77 -203 107 -364 107 -63 0 -116 -2 -118 -3z m-758 -1751 c0 -1
-12 -2 -26 -2 -17 0 -22 2 -13 7 10 7 39 3 39 -5z m34 7 c3 -5 -1 -9 -9 -9 -8
0 -12 4 -9 9 3 4 7 8 9 8 2 0 6 -4 9 -8z m86 -7 c0 -1 -12 -2 -26 -2 -17 0
-22 2 -13 7 10 7 39 3 39 -5z m-235 -4 c-9 -8 -36 -10 -30 -2 2 4 11 8 20 8 8
0 13 -3 10 -6z m302 3 c-3 -3 -12 -4 -19 -1 -8 3 -5 6 6 6 11 1 17 -2 13 -5z
m38 -4 c-3 -5 -12 -10 -18 -10 -7 0 -6 4 3 10 19 12 23 12 15 0z m-395 -7
c-52 -17 -70 -21 -70 -17 0 8 43 23 65 23 13 -1 15 -2 5 -6z m460 -3 c11 -8 7
-9 -15 -4 -37 8 -45 14 -19 14 10 0 26 -5 34 -10z m-545 -10 c-3 -5 -14 -10
-23 -9 -14 0 -13 2 3 9 27 11 27 11 20 0z m611 -3 c4 -3 -4 -4 -16 -2 -30 6
-40 16 -12 12 12 -2 24 -6 28 -10z m55 -15 c-13 -2 -27 0 -32 5 -6 6 3 7 23 4
28 -4 29 -6 9 -9z m-746 -2 c-3 -5 -14 -10 -23 -9 -14 0 -13 2 3 9 27 11 27
11 20 0z m795 -10 c0 -5 -2 -10 -4 -10 -3 0 -8 5 -11 10 -3 6 -1 10 4 10 6 0
11 -4 11 -10z m-843 -6 c-3 -3 -12 -4 -19 -1 -8 3 -5 6 6 6 11 1 17 -2 13 -5z
m908 -14 c3 -5 -4 -6 -15 -3 -11 3 -22 9 -25 13 -3 5 4 6 15 3 11 -3 22 -9 25
-13z m-955 0 c-8 -5 -19 -10 -25 -10 -5 0 -3 5 5 10 8 5 20 10 25 10 6 0 3 -5
-5 -10z m1048 -30 c3 0 3 -2 0 -5 -5 -6 -78 22 -78 30 0 3 16 -2 36 -10 20 -8
39 -15 42 -15z m-1138 1 c0 -5 -7 -12 -16 -15 -14 -5 -15 -4 -4 9 14 17 20 19
20 6z m-54 -26 c-11 -8 -25 -15 -30 -15 -6 1 0 7 14 15 32 19 40 18 16 0z
m1361 -62 c-5 -5 -66 27 -72 37 -3 5 12 0 34 -12 23 -12 39 -23 38 -25z
m-1427 33 c0 -2 -7 -7 -16 -10 -8 -3 -12 -2 -9 4 6 10 25 14 25 6z m-56 -31
c-10 -8 -23 -15 -28 -15 -6 0 -1 7 10 15 10 8 23 15 28 15 6 0 1 -7 -10 -15z
m-54 -30 c-7 -8 -17 -15 -23 -15 -6 0 -2 7 9 15 25 19 30 19 14 0z m-80 -50
c-19 -14 -36 -25 -39 -25 -10 0 53 49 63 50 6 0 -5 -11 -24 -25z m-60 -45
c-35 -24 -54 -31 -30 -11 14 11 30 21 35 21 6 0 3 -5 -5 -10z m-90 -64 c0 -2
-8 -10 -17 -17 -16 -13 -17 -12 -4 4 13 16 21 21 21 13z m-55 -56 c-3 -5 -12
-10 -18 -10 -7 0 -6 4 3 10 19 12 23 12 15 0z m-35 -34 c0 -2 -7 -7 -16 -10
-8 -3 -12 -2 -9 4 6 10 25 14 25 6z m-40 -30 c0 -2 -8 -10 -17 -17 -16 -13
-17 -12 -4 4 13 16 21 21 21 13z m-90 -96 c0 -5 -5 -10 -11 -10 -5 0 -7 5 -4
10 3 6 8 10 11 10 2 0 4 -4 4 -10z m1420 -64 c0 -2 -8 -10 -17 -17 -16 -13
-17 -12 -4 4 13 16 21 21 21 13z m-1520 -70 c0 -3 -4 -8 -10 -11 -5 -3 -10 -1
-10 4 0 6 5 11 10 11 6 0 10 -2 10 -4z m1470 0 c0 -2 -8 -10 -17 -17 -16 -13
-17 -12 -4 4 13 16 21 21 21 13z m-40 -55 c-5 -11 -15 -23 -21 -27 -6 -3 -3 5
6 20 20 30 30 35 15 7z m-50 -91 c-6 -11 -13 -20 -16 -20 -2 0 0 9 6 20 6 11
13 20 16 20 2 0 0 -9 -6 -20z m-1726 -908 c2 -4 -7 -8 -22 -9 -24 -2 -24 -1
-7 7 11 5 21 9 22 9 1 1 4 -3 7 -7z m70 -1 c-8 -8 -53 -7 -48 1 3 4 16 7 29 6
13 -1 22 -4 19 -7z m43 3 c-3 -3 -12 -4 -19 -1 -8 3 -5 6 6 6 11 1 17 -2 13
-5z m71 -1 c-10 -2 -28 -2 -40 0 -13 2 -5 4 17 4 22 1 32 -1 23 -4z m-343 -12
c-17 -15 -74 -21 -81 -9 -4 6 -3 9 2 5 5 -3 25 -2 44 3 19 4 37 8 40 9 2 1 0
-3 -5 -8z m102 3 c-3 -3 -12 -4 -19 -1 -8 3 -5 6 6 6 11 1 17 -2 13 -5z m-230
-20 c-3 -3 -12 -4 -19 -1 -8 3 -5 6 6 6 11 1 17 -2 13 -5z m-111 -13 c-6 -9
-46 -22 -46 -15 0 3 10 9 23 14 29 11 29 11 23 1z m74 5 c0 -2 -13 -6 -29 -8
-17 -2 -28 -1 -25 4 5 8 54 12 54 4z m-135 -15 c-6 -5 -23 -12 -40 -15 -28 -6
-28 -5 5 8 43 18 46 18 35 7z m-77 -16 c-2 -3 -26 -11 -53 -19 -26 -8 -44 -11
-39 -6 5 5 25 13 44 18 41 12 55 14 48 7z m-108 -29 c0 -2 -9 -6 -20 -9 -11
-3 -18 -1 -14 4 5 9 34 13 34 5z m-52 -11 c-3 -3 -20 -10 -38 -15 -19 -5 -29
-6 -24 -1 12 12 74 27 62 16z m2485 -275 c-15 -22 -34 -42 -41 -45 -7 -2 4 16
25 40 46 56 53 58 16 5z m-53 -64 c0 -2 -12 -12 -27 -21 l-28 -18 19 21 c17
20 36 29 36 18z m-2527 -261 c-3 -9 -8 -14 -10 -11 -3 3 -2 9 2 15 9 16 15 13
8 -4z m-30 -40 c-3 -9 -8 -14 -10 -11 -3 3 -2 9 2 15 9 16 15 13 8 -4z m3547
-9 c0 -2 -8 -10 -17 -17 -16 -13 -17 -12 -4 4 13 16 21 21 21 13z m-3593 -34
c-26 -27 -107 -79 -107 -69 0 3 19 16 43 30 23 14 51 34 61 46 11 12 21 21 24
21 3 0 -6 -13 -21 -28z m-547 -14 c0 -6 -6 -5 -15 2 -8 7 -15 14 -15 16 0 2 7
1 15 -2 8 -4 15 -11 15 -16z m416 -63 c-11 -8 -25 -15 -30 -15 -6 1 0 7 14 15
32 19 40 18 16 0z m-241 -15 c13 -6 15 -9 5 -9 -8 0 -22 4 -30 9 -18 12 -2 12
25 0z m190 0 c-3 -5 -14 -10 -23 -9 -14 0 -13 2 3 9 27 11 27 11 20 0z m-135
-6 c0 -8 -19 -13 -24 -6 -3 5 1 9 9 9 8 0 15 -2 15 -3z m1944 -10 c3 -8 2 -12
-4 -9 -6 3 -10 10 -10 16 0 14 7 11 14 -7z m851 -45 c-43 -43 -150 -119 -169
-119 -6 0 12 13 40 30 28 16 76 52 105 79 65 61 78 66 24 10z m986 18 c-10 -9
-11 -8 -5 6 3 10 9 15 12 12 3 -3 0 -11 -7 -18z m-1800 -14 c13 -16 12 -17 -3
-4 -17 13 -22 21 -14 21 2 0 10 -8 17 -17z m1758 -26 c-2 -1 -13 -9 -24 -17
-19 -14 -19 -14 -6 3 7 9 18 17 24 17 6 0 8 -1 6 -3z m-684 -61 c6 -4 1 -4
-10 2 -11 6 -29 21 -40 34 -19 22 -19 22 10 -2 17 -14 35 -29 40 -34z m-1004
27 c13 -16 12 -17 -3 -4 -17 13 -22 21 -14 21 2 0 10 -8 17 -17z m1639 4 c0
-2 -10 -12 -22 -23 l-23 -19 19 23 c18 21 26 27 26 19z m-1599 -34 c13 -16 12
-17 -3 -4 -17 13 -22 21 -14 21 2 0 10 -8 17 -17z m40 -20 c13 -16 12 -17 -3
-4 -10 7 -18 15 -18 17 0 8 8 3 21 -13z m999 -19 c0 -2 -13 2 -30 11 -16 9
-30 18 -30 21 0 2 14 -2 30 -11 17 -9 30 -18 30 -21z m495 26 c-3 -5 -16 -15
-28 -21 -19 -9 -19 -8 3 10 28 23 34 26 25 11z m-1425 -35 c17 -9 30 -18 30
-21 0 -2 -12 2 -27 9 -16 8 -35 17 -43 20 -10 4 -11 6 -2 6 7 1 26 -6 42 -14z
m402 3 c-6 -6 -22 -13 -34 -15 -18 -2 -19 -1 -8 6 8 5 17 8 21 5 4 -2 10 0 14
6 3 5 9 10 13 10 3 0 1 -5 -6 -12z m565 -4 c-3 -3 -12 -4 -19 -1 -8 3 -5 6 6
6 11 1 17 -2 13 -5z m44 -22 c-7 -2 -18 1 -23 6 -8 8 -4 9 13 5 13 -4 18 -8
10 -11z m329 14 c0 -2 -7 -7 -16 -10 -8 -3 -12 -2 -9 4 6 10 25 14 25 6z
m-1001 -10 c-2 -1 -19 -8 -36 -14 -37 -12 -45 -6 -10 8 22 9 54 13 46 6z m961
0 c0 -2 -9 -6 -20 -9 -11 -3 -18 -1 -14 4 5 9 34 13 34 5z m-1203 -12 c-3 -3
-12 -4 -19 -1 -8 3 -5 6 6 6 11 1 17 -2 13 -5z m38 -4 c3 -5 -1 -10 -10 -10
-9 0 -13 5 -10 10 3 6 8 10 10 10 2 0 7 -4 10 -10z m963 -5 c4 -3 -9 -3 -28 0
-45 8 -55 18 -12 12 19 -3 37 -8 40 -12z m122 5 c0 -5 -10 -10 -22 -9 -22 0
-22 1 -3 9 11 5 21 9 23 9 1 1 2 -3 2 -9z m-1030 -10 c0 -5 -2 -10 -4 -10 -3
0 -8 5 -11 10 -3 6 -1 10 4 10 6 0 11 -4 11 -10z m67 4 c-3 -3 -12 -4 -19 -1
-8 3 -5 6 6 6 11 1 17 -2 13 -5z m906 -1 c-7 -2 -19 -2 -25 0 -7 3 -2 5 12 5
14 0 19 -2 13 -5z"/>
</g>
</svg>
